<svg fill="#fff" xmlns="http://www.w3.org/2000/svg" width="800" height="800" viewBox="0 0 529.012 529.013" xml:space="preserve"><path d="M366.817 252.027c19.285-8.727 34.561-21.824 45.826-39.278 11.268-17.46 16.898-36.64 16.898-57.552 0-19.284-4.566-36.689-13.703-52.222-9.137-15.532-20.551-27.962-34.254-37.301-13.703-9.339-29.234-15.478-46.592-18.421-2.826-.478-5.984-.906-9.295-1.31V18.36c0-10.141-8.221-18.36-18.361-18.36h-36.719c-10.141 0-18.36 8.219-18.36 18.36v24.48h-38.293V18.36c0-10.141-8.219-18.36-18.36-18.36h-36.72c-10.141 0-18.36 8.219-18.36 18.36v24.48H77.543v446.393h62.993v21.42c0 10.141 8.219 18.36 18.36 18.36h36.72c10.141 0 18.36-8.22 18.36-18.36v-21.42h15.514c8.023-.055 15.587-.128 22.779-.208v21.628c0 10.141 8.219 18.36 18.36 18.36h36.721c10.141 0 18.359-8.22 18.359-18.36V487.14c5.098-.288 9.303-.606 12.49-.949 23.955-2.638 44.102-9.693 60.441-21.162 16.34-11.47 29.229-26.794 38.672-45.979 9.438-19.187 14.156-38.924 14.156-59.224 0-25.783-7.307-48.214-21.922-67.296s-35.526-32.583-62.729-40.503zm-147.375-134.89c42.43 0 68.109.508 77.039 1.523 15.023 1.83 26.34 7.057 33.953 15.68s11.42 19.841 11.42 33.648c0 14.413-4.418 26.034-13.25 34.865-8.83 8.832-20.961 14.162-36.389 15.986-8.525 1.016-30.35 1.523-65.466 1.523h-59.07V117.137h51.763zm126.213 276.336c-8.428 9.438-19.334 15.38-32.736 17.815-8.732 1.83-29.332 2.742-61.812 2.742h-83.434V294.659h72.772c41.004 0 67.651 2.13 79.934 6.396s21.67 11.065 28.164 20.404c6.492 9.339 9.742 20.704 9.742 34.106.007 15.827-4.202 28.464-12.63 37.908z"/></svg>